<svg xmlns="http://www.w3.org/2000/svg" viewBox="0 0 640 640">
  <defs>
    <linearGradient id="g" x1="0" y1="0" x2="1" y2="1">
      <stop offset="0" stop-color="#3a0d0c"/><stop offset="0.55" stop-color="#8c1f1c"/><stop offset="1" stop-color="#dd3532"/>
    </linearGradient>
  </defs>
  <rect width="640" height="640" fill="url(#g)"/>
  <g fill="#120505" opacity="0.28">
    <rect x="0" y="0" width="640" height="16"/><rect x="0" y="80" width="640" height="16"/>
    <rect x="0" y="160" width="640" height="16"/><rect x="0" y="240" width="640" height="16"/>
    <rect x="0" y="320" width="640" height="16"/><rect x="0" y="400" width="640" height="16"/>
    <rect x="0" y="480" width="640" height="16"/><rect x="0" y="560" width="640" height="16"/>
  </g>
  <g fill="#ffd9a8">
    <rect x="76" y="300" width="34" height="40" rx="4"/><rect x="124" y="256" width="34" height="128" rx="4"/>
    <rect x="172" y="286" width="34" height="68" rx="4"/><rect x="220" y="212" width="34" height="216" rx="4"/>
    <rect x="268" y="264" width="34" height="112" rx="4"/><rect x="316" y="180" width="34" height="280" rx="4"/>
    <rect x="364" y="252" width="34" height="136" rx="4"/><rect x="412" y="220" width="34" height="200" rx="4"/>
    <rect x="460" y="284" width="34" height="72" rx="4"/><rect x="508" y="248" width="34" height="144" rx="4"/>
  </g>
  <text x="320" y="540" text-anchor="middle" fill="#fff2e2" font-family="monospace" font-size="44" font-weight="bold" letter-spacing="6">ARCADE</text>
  <text x="320" y="586" text-anchor="middle" fill="#ffd0c9" font-family="monospace" font-size="30" letter-spacing="10">WARMUP</text>
</svg>
